<svg width="28" height="28" viewBox="0 0 28 28" fill="none" xmlns="http://www.w3.org/2000/svg">
<path d="M27.8806 26.4224L20.0926 18.6344C21.9641 16.3877 22.8974 13.5059 22.6982 10.5885C22.4991 7.67119 21.1829 4.94294 19.0235 2.97132C16.864 0.999695 14.0276 -0.0634894 11.1042 0.00293512C8.18084 0.0693596 5.39562 1.26028 3.32795 3.32795C1.26028 5.39562 0.0693596 8.18084 0.00293512 11.1042C-0.0634894 14.0276 0.999695 16.864 2.97132 19.0235C4.94294 21.1829 7.67119 22.4991 10.5885 22.6982C13.5059 22.8974 16.3877 21.9641 18.6344 20.0926L26.4224 27.8806L27.8806 26.4224ZM2.09938 11.3806C2.09938 9.54497 2.64371 7.75054 3.66355 6.22424C4.68339 4.69795 6.13292 3.50835 7.82885 2.80587C9.52477 2.1034 11.3909 1.9196 13.1913 2.27771C14.9917 2.63583 16.6455 3.51979 17.9435 4.81779C19.2415 6.1158 20.1254 7.76956 20.4835 9.56995C20.8417 11.3703 20.6579 13.2365 19.9554 14.9324C19.2529 16.6283 18.0633 18.0779 16.537 19.0977C15.0107 20.1175 13.2163 20.6619 11.3806 20.6619C8.91992 20.6591 6.56079 19.6804 4.82081 17.9404C3.08083 16.2005 2.10211 13.8413 2.09938 11.3806Z" fill="#E0AC62"/>
</svg>
