<svg width="298" height="297" viewBox="0 0 298 297" fill="none" xmlns="http://www.w3.org/2000/svg">
<g opacity="0.35">
<path d="M175.25 296.5C234.483 296.5 282.5 248.483 282.5 189.25C282.5 130.017 234.483 82 175.25 82C116.017 82 68 130.017 68 189.25C68 248.483 116.017 296.5 175.25 296.5Z" fill="#E0AC62"/>
<path opacity="0.2" d="M175.25 267.535C132.017 267.535 96.9653 232.487 96.9697 189.25C96.9742 146.013 132.017 110.965 175.254 110.97C218.492 110.974 253.539 146.017 253.535 189.254C253.535 210.017 245.287 229.927 230.607 244.607C215.954 259.336 196.021 267.592 175.25 267.535ZM175.25 115.797C134.746 115.797 101.797 148.75 101.797 189.25C101.797 229.754 134.75 262.704 175.25 262.704C215.754 262.704 248.704 229.75 248.704 189.25C248.704 148.75 215.754 115.797 175.25 115.797Z" fill="black"/>
<path d="M175.25 265.121C217.153 265.121 251.121 231.153 251.121 189.25C251.121 147.347 217.153 113.379 175.25 113.379C133.347 113.379 99.3787 147.347 99.3787 189.25C99.3787 231.153 133.347 265.121 175.25 265.121Z" fill="#3F3D56"/>
<path d="M118.828 158.914C116.41 154.176 118.287 148.377 123.025 145.96C127.763 143.542 133.561 145.418 135.979 150.156C135.983 150.161 135.983 150.17 135.988 150.174L157.425 192.267C159.847 197 157.97 202.803 153.232 205.221C148.499 207.643 142.696 205.767 140.278 201.029C140.273 201.02 140.269 201.011 140.265 201.002L118.828 158.914Z" fill="#FF6584"/>
<path opacity="0.2" d="M121.219 163.608L120.23 161.664C125.167 157.827 130.966 155.005 137.39 152.925L138.379 154.868C131.423 156.319 125.509 158.998 121.219 163.608Z" fill="black"/>
<path opacity="0.2" d="M125.833 172.676L124.844 170.732C129.781 166.895 135.58 164.073 142.004 161.993L142.993 163.936C136.041 165.387 130.123 168.066 125.833 172.676Z" fill="black"/>
<path opacity="0.2" d="M130.451 181.744L129.462 179.8C134.4 175.963 140.198 173.141 146.622 171.061L147.611 173.004C140.659 174.45 134.741 177.13 130.451 181.744Z" fill="black"/>
<path opacity="0.2" d="M135.07 190.807L134.08 188.864C139.018 185.027 144.816 182.205 151.24 180.124L152.23 182.067C145.273 183.518 139.36 186.198 135.07 190.807Z" fill="black"/>
<path opacity="0.2" d="M139.683 199.875L138.694 197.932C143.632 194.095 149.43 191.273 155.854 189.192L156.843 191.135C149.892 192.582 143.973 195.261 139.683 199.875Z" fill="black"/>
<path d="M102.746 174.672C100.328 169.934 102.209 164.136 106.947 161.718C111.685 159.3 117.484 161.181 119.901 165.919C119.901 165.923 119.906 165.928 119.906 165.932L141.343 208.025C143.752 212.767 141.857 218.561 137.119 220.97C132.385 223.375 126.6 221.494 124.183 216.765L102.746 174.672Z" fill="#FF6584"/>
<path opacity="0.2" d="M105.137 179.366L104.148 177.423C109.086 173.585 114.884 170.764 121.308 168.683L122.297 170.626C115.341 172.077 109.427 174.756 105.137 179.366Z" fill="black"/>
<path opacity="0.2" d="M109.751 188.434L108.762 186.491C113.699 182.653 119.498 179.832 125.922 177.751L126.911 179.694C119.959 181.14 114.041 183.824 109.751 188.434Z" fill="black"/>
<path opacity="0.2" d="M114.369 197.497L113.38 195.554C118.318 191.717 124.116 188.895 130.54 186.814L131.529 188.758C124.577 190.208 118.659 192.888 114.369 197.497Z" fill="black"/>
<path opacity="0.2" d="M118.987 206.565L117.998 204.622C122.936 200.785 128.734 197.963 135.158 195.882L136.147 197.826C129.191 199.276 123.277 201.956 118.987 206.565Z" fill="black"/>
<path opacity="0.2" d="M123.601 215.629L122.612 213.686C127.55 209.848 133.348 207.027 139.772 204.946L140.761 206.889C133.81 208.34 127.891 211.019 123.601 215.629Z" fill="black"/>
<path d="M225.945 191.668H226.011C230.736 191.708 235.004 188.851 236.765 184.463C238.535 179.987 239.427 175.213 239.392 170.404C239.272 150.037 222.702 133.325 202.334 133.045C181.572 132.752 164.505 149.349 164.217 170.111C164.004 185.217 172.854 198.979 186.683 205.057C190.977 206.96 195.999 206.028 199.331 202.71C206.376 195.63 215.954 191.655 225.945 191.668Z" fill="#E6E6E6"/>
<path d="M206.633 180.284C213.489 180.284 219.046 174.727 219.046 167.871C219.046 161.015 213.489 155.458 206.633 155.458C199.778 155.458 194.22 161.015 194.22 167.871C194.22 174.727 199.778 180.284 206.633 180.284Z" fill="#F9A825"/>
<path d="M179.651 166.478C180.46 166.478 181.115 165.823 181.115 165.014C181.115 164.205 180.46 163.55 179.651 163.55C178.842 163.55 178.187 164.205 178.187 165.014C178.187 165.823 178.842 166.478 179.651 166.478Z" fill="#3F3D56"/>
<path d="M131.37 167.853C132.178 167.853 132.834 167.198 132.834 166.389C132.834 165.581 132.178 164.925 131.37 164.925C130.561 164.925 129.906 165.581 129.906 166.389C129.906 167.198 130.561 167.853 131.37 167.853Z" fill="#3F3D56"/>
<path d="M187.446 151.319C188.254 151.319 188.91 150.663 188.91 149.855C188.91 149.046 188.254 148.391 187.446 148.391C186.637 148.391 185.982 149.046 185.982 149.855C185.982 150.663 186.637 151.319 187.446 151.319Z" fill="#3F3D56"/>
<path d="M187.401 193.473C188.21 193.473 188.865 192.818 188.865 192.009C188.865 191.201 188.21 190.545 187.401 190.545C186.593 190.545 185.937 191.201 185.937 192.009C185.937 192.818 186.593 193.473 187.401 193.473Z" fill="#3F3D56"/>
<path d="M216.371 148.298C217.18 148.298 217.835 147.642 217.835 146.834C217.835 146.025 217.18 145.37 216.371 145.37C215.562 145.37 214.907 146.025 214.907 146.834C214.907 147.642 215.562 148.298 216.371 148.298Z" fill="#3F3D56"/>
<path d="M121.88 188.301C122.689 188.301 123.344 187.645 123.344 186.837C123.344 186.028 122.689 185.373 121.88 185.373C121.071 185.373 120.416 186.028 120.416 186.837C120.416 187.645 121.071 188.301 121.88 188.301Z" fill="#3F3D56"/>
<path d="M132.567 209.338C133.376 209.338 134.031 208.683 134.031 207.874C134.031 207.065 133.376 206.41 132.567 206.41C131.759 206.41 131.103 207.065 131.103 207.874C131.103 208.683 131.759 209.338 132.567 209.338Z" fill="#3F3D56"/>
<path d="M199.734 216.152C202.782 216.152 205.253 213.681 205.253 210.633C205.253 207.585 202.782 205.115 199.734 205.115C196.686 205.115 194.216 207.585 194.216 210.633C194.216 213.681 196.686 216.152 199.734 216.152Z" fill="#FF6584"/>
<path opacity="0.2" d="M195.595 210.287C195.6 208.003 197.454 206.153 199.739 206.153C202.019 206.157 203.869 208.003 203.874 210.287" fill="black"/>
<path d="M197.667 209.254C197.858 209.254 198.013 209.021 198.013 208.735C198.013 208.448 197.858 208.216 197.667 208.216C197.476 208.216 197.321 208.448 197.321 208.735C197.321 209.021 197.476 209.254 197.667 209.254Z" fill="#FF6584"/>
<path d="M199.735 208.566C199.926 208.566 200.081 208.334 200.081 208.047C200.081 207.76 199.926 207.528 199.735 207.528C199.543 207.528 199.389 207.76 199.389 208.047C199.389 208.334 199.543 208.566 199.735 208.566Z" fill="#FF6584"/>
<path d="M210.768 201.321C213.816 201.321 216.287 198.851 216.287 195.803C216.287 192.755 213.816 190.284 210.768 190.284C207.72 190.284 205.249 192.755 205.249 195.803C205.249 198.851 207.72 201.321 210.768 201.321Z" fill="#FF6584"/>
<path opacity="0.2" d="M214.907 196.149C214.903 198.433 213.048 200.283 210.763 200.283C208.483 200.279 206.633 198.433 206.629 196.149" fill="black"/>
<path opacity="0.2" d="M206.633 195.461C206.638 193.176 208.492 191.326 210.777 191.326C213.057 191.331 214.907 193.176 214.911 195.461" fill="black"/>
<path d="M208.7 194.427C208.892 194.427 209.046 194.195 209.046 193.908C209.046 193.622 208.892 193.389 208.7 193.389C208.509 193.389 208.354 193.622 208.354 193.908C208.354 194.195 208.509 194.427 208.7 194.427Z" fill="#FF6584"/>
<path d="M210.768 193.735C210.959 193.735 211.114 193.503 211.114 193.216C211.114 192.929 210.959 192.697 210.768 192.697C210.577 192.697 210.422 192.929 210.422 193.216C210.422 193.503 210.577 193.735 210.768 193.735Z" fill="#FF6584"/>
<path d="M210.768 198.22C210.959 198.22 211.114 197.988 211.114 197.701C211.114 197.415 210.959 197.182 210.768 197.182C210.577 197.182 210.422 197.415 210.422 197.701C210.422 197.988 210.577 198.22 210.768 198.22Z" fill="#FF6584"/>
<path d="M212.84 195.461C213.031 195.461 213.186 195.229 213.186 194.942C213.186 194.655 213.031 194.423 212.84 194.423C212.649 194.423 212.494 194.655 212.494 194.942C212.494 195.229 212.649 195.461 212.84 195.461Z" fill="#FF6584"/>
<path d="M212.494 199.254C212.685 199.254 212.84 199.022 212.84 198.735C212.84 198.448 212.685 198.216 212.494 198.216C212.303 198.216 212.148 198.448 212.148 198.735C212.148 199.022 212.303 199.254 212.494 199.254Z" fill="#FF6584"/>
<path d="M208.354 197.528C208.546 197.528 208.701 197.296 208.701 197.009C208.701 196.723 208.546 196.49 208.354 196.49C208.163 196.49 208.008 196.723 208.008 197.009C208.008 197.296 208.163 197.528 208.354 197.528Z" fill="#FF6584"/>
<path d="M221.806 208.912C224.854 208.912 227.324 206.441 227.324 203.393C227.324 200.345 224.854 197.874 221.806 197.874C218.758 197.874 216.287 200.345 216.287 203.393C216.287 206.441 218.758 208.912 221.806 208.912Z" fill="#E0AC62"/>
<path opacity="0.2" d="M225.945 203.735C225.94 206.02 224.086 207.87 221.801 207.87C219.521 207.865 217.671 206.02 217.666 203.735" fill="black"/>
<path opacity="0.2" d="M217.666 203.047C217.671 200.762 219.525 198.912 221.81 198.912C224.09 198.917 225.94 200.762 225.945 203.047" fill="black"/>
<path d="M219.738 202.014C219.929 202.014 220.084 201.781 220.084 201.494C220.084 201.208 219.929 200.975 219.738 200.975C219.547 200.975 219.392 201.208 219.392 201.494C219.392 201.781 219.547 202.014 219.738 202.014Z" fill="#E0AC62"/>
<path d="M221.806 201.326C221.997 201.326 222.152 201.094 222.152 200.807C222.152 200.52 221.997 200.288 221.806 200.288C221.614 200.288 221.459 200.52 221.459 200.807C221.459 201.094 221.614 201.326 221.806 201.326Z" fill="#E0AC62"/>
<path d="M221.806 205.807C221.997 205.807 222.152 205.574 222.152 205.288C222.152 205.001 221.997 204.769 221.806 204.769C221.614 204.769 221.459 205.001 221.459 205.288C221.459 205.574 221.614 205.807 221.806 205.807Z" fill="#E0AC62"/>
<path d="M223.873 203.047C224.064 203.047 224.219 202.815 224.219 202.528C224.219 202.241 224.064 202.009 223.873 202.009C223.682 202.009 223.527 202.241 223.527 202.528C223.527 202.815 223.682 203.047 223.873 203.047Z" fill="#E0AC62"/>
<path d="M223.531 206.84C223.723 206.84 223.878 206.608 223.878 206.321C223.878 206.035 223.723 205.802 223.531 205.802C223.34 205.802 223.185 206.035 223.185 206.321C223.185 206.608 223.34 206.84 223.531 206.84Z" fill="#E0AC62"/>
<path d="M219.392 205.119C219.583 205.119 219.738 204.887 219.738 204.6C219.738 204.313 219.583 204.081 219.392 204.081C219.201 204.081 219.046 204.313 219.046 204.6C219.046 204.887 219.201 205.119 219.392 205.119Z" fill="#E0AC62"/>
<path d="M194.216 209.6C197.264 209.6 199.734 207.129 199.734 204.081C199.734 201.033 197.264 198.562 194.216 198.562C191.168 198.562 188.697 201.033 188.697 204.081C188.697 207.129 191.168 209.6 194.216 209.6Z" fill="#E0AC62"/>
<path opacity="0.2" d="M198.355 204.427C198.35 206.712 196.496 208.562 194.211 208.562C191.931 208.557 190.081 206.712 190.076 204.427" fill="black"/>
<path opacity="0.2" d="M190.076 203.735C190.081 201.45 191.935 199.6 194.22 199.6C196.5 199.605 198.35 201.45 198.355 203.735" fill="black"/>
<path d="M192.148 202.701C192.339 202.701 192.494 202.469 192.494 202.182C192.494 201.895 192.339 201.663 192.148 201.663C191.957 201.663 191.802 201.895 191.802 202.182C191.802 202.469 191.957 202.701 192.148 202.701Z" fill="#E0AC62"/>
<path d="M194.216 202.014C194.407 202.014 194.562 201.781 194.562 201.494C194.562 201.208 194.407 200.975 194.216 200.975C194.024 200.975 193.87 201.208 193.87 201.494C193.87 201.781 194.024 202.014 194.216 202.014Z" fill="#E0AC62"/>
<path d="M194.216 206.499C194.407 206.499 194.562 206.266 194.562 205.98C194.562 205.693 194.407 205.461 194.216 205.461C194.024 205.461 193.87 205.693 193.87 205.98C193.87 206.266 194.024 206.499 194.216 206.499Z" fill="#E0AC62"/>
<path d="M196.287 203.739C196.479 203.739 196.633 203.507 196.633 203.22C196.633 202.934 196.479 202.701 196.287 202.701C196.096 202.701 195.941 202.934 195.941 203.22C195.941 203.507 196.096 203.739 196.287 203.739Z" fill="#E0AC62"/>
<path d="M195.941 207.532C196.132 207.532 196.287 207.3 196.287 207.013C196.287 206.727 196.132 206.494 195.941 206.494C195.75 206.494 195.595 206.727 195.595 207.013C195.595 207.3 195.75 207.532 195.941 207.532Z" fill="#E0AC62"/>
<path d="M191.802 205.807C191.993 205.807 192.148 205.574 192.148 205.288C192.148 205.001 191.993 204.769 191.802 204.769C191.611 204.769 191.456 205.001 191.456 205.288C191.456 205.574 191.611 205.807 191.802 205.807Z" fill="#E0AC62"/>
<path d="M206.633 212.013C209.681 212.013 212.152 209.542 212.152 206.494C212.152 203.446 209.681 200.975 206.633 200.975C203.585 200.975 201.114 203.446 201.114 206.494C201.114 209.542 203.585 212.013 206.633 212.013Z" fill="#E0AC62"/>
<path opacity="0.2" d="M210.768 206.84C210.772 209.125 208.918 210.98 206.633 210.984C204.348 210.988 202.494 209.134 202.49 206.849C202.49 206.845 202.49 206.845 202.49 206.84" fill="black"/>
<path opacity="0.2" d="M202.494 206.148C202.489 203.864 204.344 202.009 206.629 202.005C208.913 202 210.768 203.855 210.772 206.139C210.772 206.144 210.772 206.144 210.772 206.148" fill="black"/>
<path d="M204.561 205.119C204.752 205.119 204.907 204.887 204.907 204.6C204.907 204.313 204.752 204.081 204.561 204.081C204.37 204.081 204.215 204.313 204.215 204.6C204.215 204.887 204.37 205.119 204.561 205.119Z" fill="#E0AC62"/>
<path d="M206.633 204.427C206.824 204.427 206.979 204.195 206.979 203.908C206.979 203.621 206.824 203.389 206.633 203.389C206.442 203.389 206.287 203.621 206.287 203.908C206.287 204.195 206.442 204.427 206.633 204.427Z" fill="#E0AC62"/>
<path d="M206.633 208.912C206.824 208.912 206.979 208.68 206.979 208.393C206.979 208.106 206.824 207.874 206.633 207.874C206.442 207.874 206.287 208.106 206.287 208.393C206.287 208.68 206.442 208.912 206.633 208.912Z" fill="#E0AC62"/>
<path d="M208.7 206.153C208.892 206.153 209.046 205.92 209.046 205.634C209.046 205.347 208.892 205.115 208.7 205.115C208.509 205.115 208.354 205.347 208.354 205.634C208.354 205.92 208.509 206.153 208.7 206.153Z" fill="#E0AC62"/>
<path d="M208.354 209.946C208.546 209.946 208.701 209.713 208.701 209.427C208.701 209.14 208.546 208.908 208.354 208.908C208.163 208.908 208.008 209.14 208.008 209.427C208.008 209.713 208.163 209.946 208.354 209.946Z" fill="#E0AC62"/>
<path d="M204.215 208.22C204.406 208.22 204.561 207.988 204.561 207.701C204.561 207.414 204.406 207.182 204.215 207.182C204.024 207.182 203.869 207.414 203.869 207.701C203.869 207.988 204.024 208.22 204.215 208.22Z" fill="#E0AC62"/>
<path d="M215.253 217.878C218.301 217.878 220.772 215.407 220.772 212.359C220.772 209.311 218.301 206.84 215.253 206.84C212.205 206.84 209.734 209.311 209.734 212.359C209.734 215.407 212.205 217.878 215.253 217.878Z" fill="#FF6584"/>
<path opacity="0.2" d="M211.114 212.013C211.114 209.728 212.968 207.874 215.253 207.874C217.538 207.874 219.392 209.728 219.392 212.013" fill="black"/>
<path d="M144.293 192.786C145.101 192.786 145.757 192.13 145.757 191.322C145.757 190.513 145.101 189.858 144.293 189.858C143.484 189.858 142.829 190.513 142.829 191.322C142.829 192.13 143.484 192.786 144.293 192.786Z" fill="#3F3D56"/>
</g>
<g opacity="0.35">
<path d="M30.1129 29H15.8871C14.8459 29 14 30.0044 14 31.2406V38.6517C14 39.8879 14.8459 40.8923 15.8871 40.8923H18.2447V52H27.7553V40.8923H30.1129C31.1541 40.8923 32 39.8879 32 38.6517V31.2406C32 30.0044 31.1541 29 30.1129 29Z" fill="#E0AC62"/>
<path d="M45.4043 97.2939C36.3039 81.9477 31.6491 63.6792 32.1093 45.1034C32.125 44.2177 31.602 43.4465 30.8489 43.2476V40H15.1533V43.2054H14.9389C14.0497 43.2054 13.328 44.0369 13.328 45.0612C13.328 45.1034 13.328 45.1516 13.3332 45.1938C14.5675 65.0529 10.3939 82.8635 0.807103 98.6255C0.257941 99.5293 -0.0244852 100.62 0.00166531 101.722L1.71714 162.891C1.80082 165.722 3.81441 167.976 6.27257 168H41.7798C44.2745 167.976 46.2934 165.668 46.3404 162.8L46.9994 103.41C47.0204 101.228 46.4607 99.0955 45.4043 97.2939Z" fill="#9C77CA"/>
<path opacity="0.2" d="M27 31C27 33.7614 25.2091 36 23 36C20.7909 36 19 33.7614 19 31" fill="#9C77CA"/>
</g>
<path d="M281.488 102.476L285.265 103.406L286.195 99.6287L282.417 98.6991L281.488 102.476Z" fill="#00BF71" fill-opacity="0.35"/>
<path d="M218.251 65.8817L220.562 63.8L216.92 59.7587L214.61 61.8405L218.251 65.8817Z" fill="#00BF71" fill-opacity="0.35"/>
<path d="M54.6413 151.123L56.9517 149.041L53.3103 145L50.9999 147.082L54.6413 151.123Z" fill="#00BF71" fill-opacity="0.35"/>
<path d="M276.126 64.9143L278.437 62.8325L274.795 58.7913L272.485 60.873L276.126 64.9143Z" fill="#00BF71" fill-opacity="0.35"/>
<path d="M242.793 60.2243L246.834 56.5829L244.753 54.2726L240.711 57.914L242.793 60.2243Z" fill="#00BF71" fill-opacity="0.35"/>
<path d="M76.0817 87.9518L80.1229 84.3104L78.0412 82L73.9999 85.6414L76.0817 87.9518Z" fill="#00BF71" fill-opacity="0.35"/>
<path d="M178.082 28.9518L182.123 25.3104L180.041 23L176 26.6414L178.082 28.9518Z" fill="#00BF71" fill-opacity="0.35"/>
</svg>
