<svg width="272" height="353" viewBox="0 0 272 353" fill="none" xmlns="http://www.w3.org/2000/svg">
<path d="M184.78 172.2H184.93C195.58 172.29 205.2 165.85 209.17 155.96C213.16 145.87 215.17 135.11 215.09 124.27C214.82 78.36 177.47 40.69 131.56 40.06C84.7601 39.4 46.2901 76.81 45.6401 123.61C45.1601 157.66 65.11 188.68 96.28 202.38C105.96 206.67 117.28 204.57 124.79 197.09C140.67 181.13 162.26 172.17 184.78 172.2Z" fill="#E6E6E6"/>
<path d="M141.25 146.54C156.703 146.54 169.23 134.013 169.23 118.56C169.23 103.107 156.703 90.5801 141.25 90.5801C125.797 90.5801 113.27 103.107 113.27 118.56C113.27 134.013 125.797 146.54 141.25 146.54Z" fill="#F9A825"/>
<path d="M124.049 306.656C115.398 314.959 101.663 314.684 93.361 306.033C85.0588 297.382 85.3338 283.647 93.9846 275.345C93.9913 275.333 94.0104 275.327 94.0171 275.314L170.898 201.651C179.537 193.342 193.281 193.614 201.583 202.265C209.892 210.903 209.62 224.648 200.969 232.95C200.953 232.965 200.937 232.981 200.921 232.996L124.049 306.656Z" fill="#FF6584"/>
<path opacity="0.2" d="M132.621 298.44L129.072 301.84C117.576 293.683 107.712 283.007 99.0402 270.498L102.589 267.098C110.249 281.166 119.881 292.183 132.621 298.44Z" fill="black"/>
<path opacity="0.2" d="M149.187 282.58L145.637 285.98C134.141 277.823 124.278 267.147 115.606 254.638L119.155 251.238C126.811 265.296 136.447 276.323 149.187 282.58Z" fill="black"/>
<path opacity="0.2" d="M165.749 266.711L162.2 270.111C150.704 261.953 140.84 251.277 132.168 238.768L135.717 235.369C143.364 249.429 152.999 260.456 165.749 266.711Z" fill="black"/>
<path opacity="0.2" d="M182.302 250.844L178.752 254.244C167.256 246.086 157.393 235.41 148.721 222.902L152.27 219.502C159.929 233.569 169.562 244.587 182.302 250.844Z" fill="black"/>
<path opacity="0.2" d="M198.867 234.984L195.318 238.384C183.822 230.226 173.958 219.55 165.286 207.042L168.835 203.642C176.482 217.702 186.117 228.73 198.867 234.984Z" fill="black"/>
<path d="M168.525 331.103C159.874 339.405 146.136 339.121 137.834 330.47C129.532 321.819 129.816 308.081 138.467 299.779C138.476 299.776 138.483 299.764 138.493 299.761L215.374 226.098C224.04 217.812 237.777 218.128 246.06 226.784C254.331 235.434 254.038 249.143 245.406 257.44L168.525 331.103Z" fill="#FF6584"/>
<path opacity="0.2" d="M177.097 322.887L173.548 326.287C162.052 318.13 152.188 307.453 143.516 294.945L147.065 291.545C154.725 305.612 164.357 316.63 177.097 322.887Z" fill="black"/>
<path opacity="0.2" d="M193.662 307.027L190.113 310.427C178.617 302.269 168.754 291.593 160.081 279.085L163.631 275.685C171.277 289.745 180.922 300.77 193.662 307.027Z" fill="black"/>
<path opacity="0.2" d="M210.215 291.16L206.666 294.56C195.17 286.403 185.306 275.726 176.634 263.218L180.183 259.818C187.84 273.876 197.475 284.903 210.215 291.16Z" fill="black"/>
<path opacity="0.2" d="M226.777 275.29L223.228 278.69C211.732 270.533 201.869 259.857 193.196 247.348L196.746 243.948C204.405 258.016 214.037 269.033 226.777 275.29Z" fill="black"/>
<path opacity="0.2" d="M243.333 259.433L239.784 262.833C228.288 254.676 218.424 244 209.752 231.491L213.302 228.091C220.958 242.149 230.593 253.176 243.333 259.433Z" fill="black"/>
<path d="M12.44 204.88C19.3104 204.88 24.88 199.31 24.88 192.44C24.88 185.57 19.3104 180 12.44 180C5.56958 180 0 185.57 0 192.44C0 199.31 5.56958 204.88 12.44 204.88Z" fill="#E0AC62"/>
<path opacity="0.2" d="M21.77 193.21C21.76 198.36 17.58 202.53 12.43 202.53C7.28999 202.52 3.11999 198.36 3.10999 193.21" fill="black"/>
<path opacity="0.2" d="M3.10999 191.66C3.11999 186.51 7.30001 182.34 12.45 182.34C17.59 182.35 21.76 186.51 21.77 191.66" fill="black"/>
<path d="M7.77997 189.33C8.21075 189.33 8.56 188.806 8.56 188.16C8.56 187.514 8.21075 186.99 7.77997 186.99C7.34919 186.99 7 187.514 7 188.16C7 188.806 7.34919 189.33 7.77997 189.33Z" fill="#E0AC62"/>
<path d="M12.4399 187.78C12.8707 187.78 13.2199 187.256 13.2199 186.61C13.2199 185.964 12.8707 185.44 12.4399 185.44C12.0092 185.44 11.6599 185.964 11.6599 186.61C11.6599 187.256 12.0092 187.78 12.4399 187.78Z" fill="#E0AC62"/>
<path d="M12.4399 197.88C12.8707 197.88 13.2199 197.356 13.2199 196.71C13.2199 196.064 12.8707 195.54 12.4399 195.54C12.0092 195.54 11.6599 196.064 11.6599 196.71C11.6599 197.356 12.0092 197.88 12.4399 197.88Z" fill="#E0AC62"/>
<path d="M17.1 191.66C17.5308 191.66 17.8801 191.136 17.8801 190.49C17.8801 189.844 17.5308 189.32 17.1 189.32C16.6693 189.32 16.3201 189.844 16.3201 190.49C16.3201 191.136 16.6693 191.66 17.1 191.66Z" fill="#E0AC62"/>
<path d="M16.3301 200.21C16.7609 200.21 17.11 199.686 17.11 199.04C17.11 198.394 16.7609 197.87 16.3301 197.87C15.8993 197.87 15.55 198.394 15.55 199.04C15.55 199.686 15.8993 200.21 16.3301 200.21Z" fill="#E0AC62"/>
<path d="M7 196.33C7.43078 196.33 7.77997 195.806 7.77997 195.16C7.77997 194.514 7.43078 193.99 7 193.99C6.56922 193.99 6.21997 194.514 6.21997 195.16C6.21997 195.806 6.56922 196.33 7 196.33Z" fill="#E0AC62"/>
<path d="M219.44 24.88C226.31 24.88 231.88 19.3104 231.88 12.44C231.88 5.56958 226.31 0 219.44 0C212.57 0 207 5.56958 207 12.44C207 19.3104 212.57 24.88 219.44 24.88Z" fill="#E0AC62"/>
<path opacity="0.2" d="M228.77 13.21C228.76 18.36 224.58 22.53 219.43 22.53C214.29 22.52 210.12 18.36 210.11 13.21" fill="black"/>
<path opacity="0.2" d="M210.11 11.6601C210.12 6.5101 214.3 2.34009 219.45 2.34009C224.59 2.35009 228.76 6.5101 228.77 11.6601" fill="black"/>
<path d="M214.78 9.32999C215.211 9.32999 215.56 8.80618 215.56 8.16C215.56 7.51383 215.211 6.98999 214.78 6.98999C214.349 6.98999 214 7.51383 214 8.16C214 8.80618 214.349 9.32999 214.78 9.32999Z" fill="#E0AC62"/>
<path d="M219.44 7.77994C219.871 7.77994 220.22 7.2561 220.22 6.60992C220.22 5.96375 219.871 5.43994 219.44 5.43994C219.009 5.43994 218.66 5.96375 218.66 6.60992C218.66 7.2561 219.009 7.77994 219.44 7.77994Z" fill="#E0AC62"/>
<path d="M219.44 17.88C219.871 17.88 220.22 17.3562 220.22 16.71C220.22 16.0638 219.871 15.54 219.44 15.54C219.009 15.54 218.66 16.0638 218.66 16.71C218.66 17.3562 219.009 17.88 219.44 17.88Z" fill="#E0AC62"/>
<path d="M224.1 11.6601C224.531 11.6601 224.88 11.1362 224.88 10.4901C224.88 9.84388 224.531 9.32007 224.1 9.32007C223.669 9.32007 223.32 9.84388 223.32 10.4901C223.32 11.1362 223.669 11.6601 224.1 11.6601Z" fill="#E0AC62"/>
<path d="M223.33 20.2101C223.761 20.2101 224.11 19.6863 224.11 19.0401C224.11 18.394 223.761 17.8701 223.33 17.8701C222.899 17.8701 222.55 18.394 222.55 19.0401C222.55 19.6863 222.899 20.2101 223.33 20.2101Z" fill="#E0AC62"/>
<path d="M214 16.33C214.431 16.33 214.78 15.8062 214.78 15.16C214.78 14.5138 214.431 13.99 214 13.99C213.569 13.99 213.22 14.5138 213.22 15.16C213.22 15.8062 213.569 16.33 214 16.33Z" fill="#E0AC62"/>
<path d="M203.44 53.88C210.31 53.88 215.88 48.3104 215.88 41.44C215.88 34.5696 210.31 29 203.44 29C196.57 29 191 34.5696 191 41.44C191 48.3104 196.57 53.88 203.44 53.88Z" fill="#E0AC62"/>
<path opacity="0.2" d="M212.77 42.21C212.76 47.36 208.58 51.53 203.43 51.53C198.29 51.52 194.12 47.36 194.11 42.21" fill="black"/>
<path opacity="0.2" d="M194.11 40.6601C194.12 35.5101 198.3 31.3401 203.45 31.3401C208.59 31.3501 212.76 35.5101 212.77 40.6601" fill="black"/>
<path d="M198.78 38.33C199.211 38.33 199.56 37.8062 199.56 37.16C199.56 36.5138 199.211 35.99 198.78 35.99C198.349 35.99 198 36.5138 198 37.16C198 37.8062 198.349 38.33 198.78 38.33Z" fill="#E0AC62"/>
<path d="M203.44 36.7799C203.871 36.7799 204.22 36.2561 204.22 35.6099C204.22 34.9638 203.871 34.4399 203.44 34.4399C203.009 34.4399 202.66 34.9638 202.66 35.6099C202.66 36.2561 203.009 36.7799 203.44 36.7799Z" fill="#E0AC62"/>
<path d="M203.44 46.88C203.871 46.88 204.22 46.3562 204.22 45.71C204.22 45.0638 203.871 44.54 203.44 44.54C203.009 44.54 202.66 45.0638 202.66 45.71C202.66 46.3562 203.009 46.88 203.44 46.88Z" fill="#E0AC62"/>
<path d="M208.1 40.6601C208.531 40.6601 208.88 40.1362 208.88 39.4901C208.88 38.8439 208.531 38.3201 208.1 38.3201C207.669 38.3201 207.32 38.8439 207.32 39.4901C207.32 40.1362 207.669 40.6601 208.1 40.6601Z" fill="#E0AC62"/>
<path d="M207.33 49.2101C207.761 49.2101 208.11 48.6863 208.11 48.0401C208.11 47.394 207.761 46.8701 207.33 46.8701C206.899 46.8701 206.55 47.394 206.55 48.0401C206.55 48.6863 206.899 49.2101 207.33 49.2101Z" fill="#E0AC62"/>
<path d="M198 45.33C198.431 45.33 198.78 44.8062 198.78 44.16C198.78 43.5138 198.431 42.99 198 42.99C197.569 42.99 197.22 43.5138 197.22 44.16C197.22 44.8062 197.569 45.33 198 45.33Z" fill="#E0AC62"/>
<path d="M30.44 126.88C37.3104 126.88 42.88 121.31 42.88 114.44C42.88 107.57 37.3104 102 30.44 102C23.5696 102 18 107.57 18 114.44C18 121.31 23.5696 126.88 30.44 126.88Z" fill="#E0AC62"/>
<path opacity="0.2" d="M39.7699 115.21C39.7599 120.36 35.5799 124.53 30.4299 124.53C25.2899 124.52 21.1199 120.36 21.1099 115.21" fill="black"/>
<path opacity="0.2" d="M21.1099 113.66C21.1199 108.51 25.2999 104.34 30.4499 104.34C35.5899 104.35 39.7599 108.51 39.7699 113.66" fill="black"/>
<path d="M25.78 111.33C26.2108 111.33 26.56 110.806 26.56 110.16C26.56 109.514 26.2108 108.99 25.78 108.99C25.3492 108.99 25 109.514 25 110.16C25 110.806 25.3492 111.33 25.78 111.33Z" fill="#E0AC62"/>
<path d="M30.4399 109.78C30.8707 109.78 31.2199 109.256 31.2199 108.61C31.2199 107.964 30.8707 107.44 30.4399 107.44C30.0092 107.44 29.6599 107.964 29.6599 108.61C29.6599 109.256 30.0092 109.78 30.4399 109.78Z" fill="#E0AC62"/>
<path d="M30.4399 119.88C30.8707 119.88 31.2199 119.356 31.2199 118.71C31.2199 118.064 30.8707 117.54 30.4399 117.54C30.0092 117.54 29.6599 118.064 29.6599 118.71C29.6599 119.356 30.0092 119.88 30.4399 119.88Z" fill="#E0AC62"/>
<path d="M35.1 113.66C35.5308 113.66 35.8801 113.136 35.8801 112.49C35.8801 111.844 35.5308 111.32 35.1 111.32C34.6693 111.32 34.3201 111.844 34.3201 112.49C34.3201 113.136 34.6693 113.66 35.1 113.66Z" fill="#E0AC62"/>
<path d="M34.3301 122.21C34.7609 122.21 35.11 121.686 35.11 121.04C35.11 120.394 34.7609 119.87 34.3301 119.87C33.8993 119.87 33.55 120.394 33.55 121.04C33.55 121.686 33.8993 122.21 34.3301 122.21Z" fill="#E0AC62"/>
<path d="M25 118.33C25.4308 118.33 25.78 117.806 25.78 117.16C25.78 116.514 25.4308 115.99 25 115.99C24.5692 115.99 24.22 116.514 24.22 117.16C24.22 117.806 24.5692 118.33 25 118.33Z" fill="#E0AC62"/>
<path d="M58.44 218.88C65.3104 218.88 70.88 213.31 70.88 206.44C70.88 199.57 65.3104 194 58.44 194C51.5696 194 46 199.57 46 206.44C46 213.31 51.5696 218.88 58.44 218.88Z" fill="#FF6584"/>
<path opacity="0.2" d="M67.7699 207.21C67.7699 212.36 63.5899 216.54 58.4399 216.54C53.2899 216.54 49.1099 212.36 49.1099 207.21" fill="black"/>
<path opacity="0.2" d="M49.1099 205.66C49.1099 200.51 53.2899 196.33 58.4399 196.33C63.5899 196.33 67.7699 200.51 67.7699 205.66" fill="black"/>
<path d="M58.4401 201.78C58.8709 201.78 59.2202 201.256 59.2202 200.61C59.2202 199.964 58.8709 199.44 58.4401 199.44C58.0093 199.44 57.6602 199.964 57.6602 200.61C57.6602 201.256 58.0093 201.78 58.4401 201.78Z" fill="#FF6584"/>
<path d="M58.4401 211.88C58.8709 211.88 59.2202 211.356 59.2202 210.71C59.2202 210.064 58.8709 209.54 58.4401 209.54C58.0093 209.54 57.6602 210.064 57.6602 210.71C57.6602 211.356 58.0093 211.88 58.4401 211.88Z" fill="#FF6584"/>
<path d="M63.1001 205.66C63.5309 205.66 63.8801 205.136 63.8801 204.49C63.8801 203.844 63.5309 203.32 63.1001 203.32C62.6693 203.32 62.3201 203.844 62.3201 204.49C62.3201 205.136 62.6693 205.66 63.1001 205.66Z" fill="#FF6584"/>
<path d="M62.3301 214.21C62.7609 214.21 63.11 213.686 63.11 213.04C63.11 212.394 62.7609 211.87 62.3301 211.87C61.8993 211.87 61.55 212.394 61.55 213.04C61.55 213.686 61.8993 214.21 62.3301 214.21Z" fill="#FF6584"/>
<path d="M52.9999 210.33C53.4307 210.33 53.78 209.806 53.78 209.16C53.78 208.514 53.4307 207.99 52.9999 207.99C52.5692 207.99 52.22 208.514 52.22 209.16C52.22 209.806 52.5692 210.33 52.9999 210.33Z" fill="#FF6584"/>
<path d="M21.44 146.88C28.3104 146.88 33.88 141.31 33.88 134.44C33.88 127.57 28.3104 122 21.44 122C14.5696 122 9 127.57 9 134.44C9 141.31 14.5696 146.88 21.44 146.88Z" fill="#FF6584"/>
<path opacity="0.2" d="M30.77 135.21C30.77 140.36 26.59 144.54 21.44 144.54C16.29 144.54 12.11 140.36 12.11 135.21" fill="black"/>
<path opacity="0.2" d="M12.11 133.66C12.11 128.51 16.29 124.33 21.44 124.33C26.59 124.33 30.77 128.51 30.77 133.66" fill="black"/>
<path d="M21.4401 129.78C21.8709 129.78 22.2202 129.256 22.2202 128.61C22.2202 127.964 21.8709 127.44 21.4401 127.44C21.0093 127.44 20.6602 127.964 20.6602 128.61C20.6602 129.256 21.0093 129.78 21.4401 129.78Z" fill="#FF6584"/>
<path d="M21.4401 139.88C21.8709 139.88 22.2202 139.356 22.2202 138.71C22.2202 138.064 21.8709 137.54 21.4401 137.54C21.0093 137.54 20.6602 138.064 20.6602 138.71C20.6602 139.356 21.0093 139.88 21.4401 139.88Z" fill="#FF6584"/>
<path d="M26.1001 133.66C26.5309 133.66 26.8801 133.136 26.8801 132.49C26.8801 131.844 26.5309 131.32 26.1001 131.32C25.6693 131.32 25.3201 131.844 25.3201 132.49C25.3201 133.136 25.6693 133.66 26.1001 133.66Z" fill="#FF6584"/>
<path d="M25.3301 142.21C25.7609 142.21 26.11 141.686 26.11 141.04C26.11 140.394 25.7609 139.87 25.3301 139.87C24.8993 139.87 24.55 140.394 24.55 141.04C24.55 141.686 24.8993 142.21 25.3301 142.21Z" fill="#FF6584"/>
<path d="M15.9999 138.33C16.4307 138.33 16.78 137.806 16.78 137.16C16.78 136.514 16.4307 135.99 15.9999 135.99C15.5692 135.99 15.22 136.514 15.22 137.16C15.22 137.806 15.5692 138.33 15.9999 138.33Z" fill="#FF6584"/>
</svg>
