<svg width="375" height="667" viewBox="0 0 375 667" fill="none" xmlns="http://www.w3.org/2000/svg">
<path fill-rule="evenodd" clip-rule="evenodd" d="M375 274.54C359.371 267.99 338.717 249.338 332.098 206.987C314.766 145.348 291.035 137.111 259.669 126.225C251.256 123.305 242.295 120.195 232.76 115.812C197.215 99.4753 167.11 51.376 162 9.15166V0H375V274.54Z" fill="#9C77CA"/>
<path fill-rule="evenodd" clip-rule="evenodd" d="M0 410.128C14.3939 408.689 47.4998 418.767 64.7725 470.596C92.0124 528.494 116.567 532.682 149.023 538.216C157.727 539.7 167 541.282 177.045 544.022C218.571 555.35 260.098 606.291 267 650.671V667H0V410.128Z" fill="#9C77CA"/>
</svg>
