<svg width="16" height="21" viewBox="0 0 16 21" fill="none" xmlns="http://www.w3.org/2000/svg">
<path d="M0 2.62504C0 1.92884 0.276566 1.26115 0.768857 0.768857C1.26115 0.276566 1.92884 0 2.62504 0L13.1252 0C13.8214 0 14.4891 0.276566 14.9814 0.768857C15.4737 1.26115 15.7503 1.92884 15.7503 2.62504V20.3441C15.7502 20.4628 15.7179 20.5793 15.6569 20.6811C15.5959 20.7829 15.5084 20.8663 15.4038 20.9223C15.2991 20.9783 15.1812 21.0049 15.0626 20.9993C14.9441 20.9936 14.8293 20.9559 14.7304 20.8901L7.87513 17.1953L1.01983 20.8901C0.921003 20.9559 0.80619 20.9936 0.687619 20.9993C0.569047 21.0049 0.451157 20.9783 0.346505 20.9223C0.241853 20.8663 0.154358 20.7829 0.0933387 20.6811C0.0323196 20.5793 6.13215e-05 20.4628 0 20.3441V2.62504ZM2.62504 1.31252C2.27694 1.31252 1.9431 1.4508 1.69695 1.69695C1.4508 1.9431 1.31252 2.27694 1.31252 2.62504V19.1182L7.51156 15.8605C7.61927 15.7888 7.74575 15.7506 7.87513 15.7506C8.0045 15.7506 8.13099 15.7888 8.2387 15.8605L14.4377 19.1182V2.62504C14.4377 2.27694 14.2994 1.9431 14.0533 1.69695C13.8072 1.4508 13.4733 1.31252 13.1252 1.31252H2.62504Z" fill="white"/>
</svg>
