<svg width="375" height="17" viewBox="0 0 375 17" fill="none" xmlns="http://www.w3.org/2000/svg">
<path fill-rule="evenodd" clip-rule="evenodd" d="M371.377 3.03571H351.209C350.351 3.03571 349.655 3.84687 349.655 4.85721V12.7499C349.655 13.7559 350.352 14.5714 351.209 14.5714H371.377C372.235 14.5714 372.931 13.7603 372.931 12.7499V4.85721C372.931 3.85122 372.234 3.03571 371.377 3.03571ZM350.172 4.85723C350.172 4.18415 350.635 3.64287 351.209 3.64287H371.377C371.949 3.64287 372.414 4.18711 372.414 4.85723V12.7499C372.414 13.423 371.951 13.9643 371.377 13.9643H351.209C350.637 13.9643 350.172 13.4201 350.172 12.7499V4.85723Z" fill="black"/>
<path fill-rule="evenodd" clip-rule="evenodd" d="M351.19 4.25C350.914 4.25 350.69 4.47386 350.69 4.75V12.8571C350.69 13.1333 350.914 13.3571 351.19 13.3571H360V4.25H351.19Z" fill="black"/>
<path fill-rule="evenodd" clip-rule="evenodd" d="M375 8.80359C375 9.88508 374.326 10.7798 373.448 10.9286V6.67859C374.326 6.8274 375 7.7221 375 8.80359Z" fill="black"/>
<path d="M321.319 14.1992C323.071 14.1992 324.272 13.0273 324.272 11.3105C324.272 9.64648 323.147 8.48047 321.541 8.48047C320.762 8.48047 320.164 8.7207 319.754 9.20117H319.66L319.901 6.48828H323.791V5.54492H319.074L318.612 10.3379H319.602C319.948 9.73438 320.58 9.38867 321.348 9.38867C322.455 9.38867 323.217 10.1797 323.217 11.3398C323.217 12.5 322.461 13.2734 321.33 13.2734C320.334 13.2734 319.608 12.6641 319.514 11.75H318.477C318.571 13.209 319.719 14.1992 321.319 14.1992ZM328.848 14.1992C330.641 14.1992 331.895 13.1855 331.895 11.7383C331.895 10.6367 331.198 9.78125 330.137 9.58203V9.48828C331.01 9.24805 331.549 8.52734 331.549 7.60156C331.549 6.2832 330.43 5.3457 328.848 5.3457C327.266 5.3457 326.147 6.2832 326.147 7.60156C326.147 8.52148 326.698 9.25391 327.559 9.48828V9.58203C326.498 9.78125 325.801 10.6367 325.801 11.7383C325.801 13.1855 327.055 14.1992 328.848 14.1992ZM328.848 13.2969C327.676 13.2969 326.867 12.6289 326.867 11.6621C326.867 10.6953 327.676 10.0273 328.848 10.0273C330.02 10.0273 330.828 10.6953 330.828 11.6621C330.828 12.6289 330.02 13.2969 328.848 13.2969ZM328.848 9.13672C327.852 9.13672 327.184 8.5625 327.184 7.70117C327.184 6.82812 327.846 6.24805 328.848 6.24805C329.85 6.24805 330.512 6.82812 330.512 7.70117C330.512 8.5625 329.844 9.13672 328.848 9.13672ZM343.233 13.3965C342.711 13.3965 342.365 12.8867 342.365 12.1074C342.365 11.3281 342.705 10.8242 343.233 10.8242C343.76 10.8242 344.094 11.3164 344.094 12.1074C344.094 12.8809 343.748 13.3965 343.233 13.3965ZM343.233 14.1465C344.287 14.1465 345.031 13.3027 345.031 12.1074C345.031 10.9121 344.287 10.0742 343.233 10.0742C342.178 10.0742 341.428 10.918 341.428 12.1074C341.428 13.3027 342.178 14.1465 343.233 14.1465ZM338.34 9.4707C339.395 9.4707 340.139 8.62695 340.139 7.43164C340.139 6.23633 339.395 5.39844 338.34 5.39844C337.285 5.39844 336.535 6.24219 336.535 7.43164C336.535 8.62695 337.285 9.4707 338.34 9.4707ZM338.246 14L341.147 10.0332L344.428 5.54492H343.362L340.397 9.59375L337.168 14H338.246ZM338.34 8.7207C337.819 8.7207 337.473 8.21094 337.473 7.43164C337.473 6.65234 337.813 6.14844 338.34 6.14844C338.867 6.14844 339.201 6.64062 339.201 7.43164C339.201 8.20508 338.856 8.7207 338.34 8.7207Z" fill="black"/>
<path opacity="0.4" fill-rule="evenodd" clip-rule="evenodd" d="M307.955 14.3913V10.0774L309.831 12.3378L307.955 14.3913ZM309.917 5.87765L307.955 8.06144V3.92417L309.917 5.87765ZM308.426 9.10774L311.337 5.87764L306.994 1.21429H306.891V7.7002L303.943 4.28013L303.104 5.25045L306.651 9.10774L303.104 12.9644L303.943 13.9348L306.891 10.5147V17H307.079L311.379 12.325L308.426 9.10774Z" fill="black"/>
<path d="M166.17 14.2051C168.285 14.2051 169.521 12.5234 169.521 9.6582C169.521 8.63281 169.345 7.76562 169 7.08594C168.455 5.94922 167.47 5.33984 166.222 5.33984C164.429 5.33984 163.158 6.56445 163.158 8.29297C163.158 9.92188 164.33 11.1113 165.941 11.1113C166.943 11.1113 167.752 10.6426 168.156 9.82812H168.179C168.179 9.82812 168.203 9.82812 168.209 9.82812C168.215 9.82812 168.256 9.82812 168.256 9.82812C168.232 11.8672 167.476 13.0391 166.181 13.0391C165.408 13.0391 164.81 12.6172 164.605 11.9258H163.281C163.539 13.3086 164.67 14.2051 166.17 14.2051ZM166.228 9.99805C165.191 9.99805 164.465 9.27148 164.465 8.24609C164.465 7.25586 165.232 6.49414 166.24 6.49414C167.242 6.49414 168.01 7.26172 168.01 8.27539C168.01 9.27148 167.26 9.99805 166.228 9.99805ZM171.273 12.2305C171.273 12.7754 171.642 13.1562 172.193 13.1562C172.738 13.1562 173.101 12.7754 173.101 12.2305C173.101 11.6855 172.738 11.3047 172.193 11.3047C171.642 11.3047 171.273 11.6855 171.273 12.2305ZM171.273 7.76562C171.273 8.31055 171.642 8.69141 172.193 8.69141C172.738 8.69141 173.101 8.31055 173.101 7.76562C173.101 7.2207 172.738 6.83984 172.193 6.83984C171.642 6.83984 171.273 7.2207 171.273 7.76562ZM178.937 14H180.203V12.3652H181.369V11.1934H180.203V5.54492H178.334C176.828 7.80078 175.568 9.76367 174.812 11.1465V12.3652H178.937V14ZM176.072 11.1406C177.068 9.41211 178.041 7.91211 178.879 6.69922H178.955V11.2227H176.072V11.1406ZM184.867 14H186.179V5.54492H184.873L182.646 7.11523V8.45703L184.767 6.95703H184.867V14ZM197.541 14H198.935L195.883 5.54492H194.47L191.418 14H192.765L193.545 11.7559H196.767L197.541 14ZM195.109 7.08008H195.209L196.433 10.6543H193.879L195.109 7.08008ZM201.631 14V7.89453H201.713L204.191 13.7539H205.187L207.666 7.89453H207.748V14H208.967V5.54492H207.431L204.736 11.9668H204.636L201.947 5.54492H200.412V14H201.631Z" fill="black"/>
<path fill-rule="evenodd" clip-rule="evenodd" d="M65.168 5.48966C67.1746 5.48966 69.0034 6.35736 70.4056 7.78017L71.3792 6.51845C69.7185 4.82616 67.5495 3.64288 65.168 3.64288C62.7901 3.64288 60.6241 4.82257 58.9655 6.50946L59.937 7.77299C61.3382 6.35437 63.1639 5.48966 65.168 5.48966ZM65.1679 9.1317C66.3706 9.1317 67.4693 9.6443 68.3167 10.4886L69.3467 9.15326C68.2257 8.02387 66.7677 7.28612 65.1679 7.28612C63.5713 7.28612 62.1142 8.02208 60.9943 9.14787L62.0227 10.485C62.8696 9.6425 63.9668 9.1317 65.1679 9.1317ZM67.2863 11.824C66.7129 11.2653 65.9746 10.8785 65.1675 10.8785C64.3619 10.8785 63.6246 11.2647 63.0512 11.821L65.1675 14.5714L67.2863 11.824Z" fill="black"/>
<path d="M46.4497 10.7305V9.69922H43.022V10.625H45.4009V10.8301C45.4009 12.2598 44.3755 13.2266 42.8638 13.2266C41.1646 13.2266 40.1099 11.9023 40.1099 9.76953C40.1099 7.66602 41.1821 6.31836 42.8579 6.31836C44.1118 6.31836 44.9614 6.92188 45.3247 8.06445H46.397C46.0923 6.38867 44.7329 5.3457 42.8579 5.3457C40.5435 5.3457 39.0259 7.09766 39.0259 9.76953C39.0259 12.4766 40.52 14.1992 42.8579 14.1992C45.02 14.1992 46.4497 12.8164 46.4497 10.7305ZM47.9146 11.791C48.0259 13.25 49.2622 14.1992 51.0552 14.1992C52.9888 14.1992 54.2134 13.209 54.2134 11.6562C54.2134 10.4141 53.5103 9.73438 51.7583 9.29492L50.8735 9.06055C49.7075 8.76172 49.2446 8.38086 49.2446 7.71875C49.2446 6.86328 49.9888 6.30078 51.1138 6.30078C52.1685 6.30078 52.8833 6.81641 53.0298 7.68359H54.0903C54.0024 6.31836 52.7837 5.3457 51.1489 5.3457C49.3618 5.3457 48.1606 6.31836 48.1606 7.75391C48.1606 8.95508 48.8228 9.64648 50.3521 10.0332L51.436 10.3145C52.6021 10.6074 53.1294 11.0645 53.1294 11.7852C53.1294 12.623 52.2915 13.2383 51.1548 13.2383C49.9536 13.2383 49.1099 12.6758 48.981 11.791H47.9146Z" fill="black"/>
<path fill-rule="evenodd" clip-rule="evenodd" d="M28.9656 9.4107C28.9656 11.2549 30.2392 12.75 31.8104 12.75C33.3816 12.75 34.6552 11.2549 34.6552 9.4107C34.6552 7.56646 33.3816 6.07141 31.8104 6.07141C30.2392 6.07141 28.9656 7.56646 28.9656 9.4107ZM34.138 9.41072C34.138 10.9196 33.0959 12.1429 31.8104 12.1429C30.5249 12.1429 29.4828 10.9196 29.4828 9.41072C29.4828 7.9018 30.5249 6.67858 31.8104 6.67858C33.0959 6.67858 34.138 7.9018 34.138 9.41072Z" fill="black"/>
<path fill-rule="evenodd" clip-rule="evenodd" d="M21.7241 9.4107C21.7241 11.2549 22.9978 12.75 24.5689 12.75C26.1401 12.75 27.4138 11.2549 27.4138 9.4107C27.4138 7.56646 26.1401 6.07141 24.5689 6.07141C22.9978 6.07141 21.7241 7.56646 21.7241 9.4107ZM26.8965 9.41072C26.8965 10.9196 25.8545 12.1429 24.569 12.1429C23.2835 12.1429 22.2414 10.9196 22.2414 9.41072C22.2414 7.9018 23.2835 6.67858 24.569 6.67858C25.8545 6.67858 26.8965 7.9018 26.8965 9.41072Z" fill="black"/>
<path fill-rule="evenodd" clip-rule="evenodd" d="M17.3276 12.75C18.8988 12.75 20.1724 11.2549 20.1724 9.4107C20.1724 7.56646 18.8988 6.07141 17.3276 6.07141C15.7565 6.07141 14.4828 7.56646 14.4828 9.4107C14.4828 11.2549 15.7565 12.75 17.3276 12.75Z" fill="black"/>
<path fill-rule="evenodd" clip-rule="evenodd" d="M10.0862 12.75C11.6573 12.75 12.931 11.2549 12.931 9.4107C12.931 7.56646 11.6573 6.07141 10.0862 6.07141C8.51501 6.07141 7.24133 7.56646 7.24133 9.4107C7.24133 11.2549 8.51501 12.75 10.0862 12.75Z" fill="black"/>
<path fill-rule="evenodd" clip-rule="evenodd" d="M2.84483 12.75C4.41598 12.75 5.68966 11.2549 5.68966 9.4107C5.68966 7.56646 4.41598 6.07141 2.84483 6.07141C1.27367 6.07141 0 7.56646 0 9.4107C0 11.2549 1.27367 12.75 2.84483 12.75Z" fill="black"/>
</svg>
