<svg width="28" height="38" viewBox="0 0 28 38" fill="none" xmlns="http://www.w3.org/2000/svg">
<path fill-rule="evenodd" clip-rule="evenodd" d="M14 7C14.2321 7 14.4546 7.09219 14.6187 7.25628C14.7828 7.42038 14.875 7.64294 14.875 7.875V10.5H17.5C17.7321 10.5 17.9546 10.5922 18.1187 10.7563C18.2828 10.9204 18.375 11.1429 18.375 11.375C18.375 11.6071 18.2828 11.8296 18.1187 11.9937C17.9546 12.1578 17.7321 12.25 17.5 12.25H14.875V14.875C14.875 15.1071 14.7828 15.3296 14.6187 15.4937C14.4546 15.6578 14.2321 15.75 14 15.75C13.7679 15.75 13.5454 15.6578 13.3813 15.4937C13.2172 15.3296 13.125 15.1071 13.125 14.875V12.25H10.5C10.2679 12.25 10.0454 12.1578 9.88128 11.9937C9.71719 11.8296 9.625 11.6071 9.625 11.375C9.625 11.1429 9.71719 10.9204 9.88128 10.7563C10.0454 10.5922 10.2679 10.5 10.5 10.5H13.125V7.875C13.125 7.64294 13.2172 7.42038 13.3813 7.25628C13.5454 7.09219 13.7679 7 14 7Z" fill="#9C77CA"/>
<path d="M3.5 3.5C3.5 2.57174 3.86875 1.6815 4.52513 1.02513C5.1815 0.368749 6.07174 0 7 0L21 0C21.9283 0 22.8185 0.368749 23.4749 1.02513C24.1313 1.6815 24.5 2.57174 24.5 3.5V27.125C24.4999 27.2833 24.4569 27.4386 24.3756 27.5743C24.2942 27.7101 24.1775 27.8212 24.038 27.8959C23.8985 27.9707 23.7413 28.0061 23.5832 27.9985C23.4251 27.991 23.272 27.9407 23.1402 27.853L14 22.9268L4.85975 27.853C4.72798 27.9407 4.5749 27.991 4.41681 27.9985C4.25872 28.0061 4.10153 27.9707 3.962 27.8959C3.82247 27.8212 3.70581 27.7101 3.62445 27.5743C3.54309 27.4386 3.50008 27.2833 3.5 27.125V3.5ZM7 1.75C6.53587 1.75 6.09075 1.93437 5.76256 2.26256C5.43437 2.59075 5.25 3.03587 5.25 3.5V25.4905L13.5153 21.147C13.6589 21.0514 13.8275 21.0005 14 21.0005C14.1725 21.0005 14.3411 21.0514 14.4848 21.147L22.75 25.4905V3.5C22.75 3.03587 22.5656 2.59075 22.2374 2.26256C21.9092 1.93437 21.4641 1.75 21 1.75H7Z" fill="#9C77CA"/>
<line y1="36.5" x2="28" y2="36.5" stroke="#9C77CA" stroke-width="3"/>
</svg>
