<svg width="30" height="39" viewBox="0 0 30 39" fill="none" xmlns="http://www.w3.org/2000/svg">
<path d="M22.0312 0.9375H7.96875C7.22309 0.938337 6.5082 1.23492 5.98094 1.76219C5.45367 2.28945 5.15709 3.00434 5.15625 3.75V27.1875C5.15681 27.6846 5.35453 28.1612 5.70604 28.5127C6.05755 28.8642 6.53414 29.0619 7.03125 29.0625H22.9688C23.4659 29.0619 23.9424 28.8642 24.294 28.5127C24.6455 28.1612 24.8432 27.6846 24.8438 27.1875V3.75C24.8429 3.00434 24.5463 2.28945 24.0191 1.76219C23.4918 1.23492 22.7769 0.938337 22.0312 0.9375ZM22.9688 27.1875H7.03125V14.0625H22.9688V27.1875ZM22.9688 12.1875H7.03125V3.75C7.03154 3.50145 7.13041 3.26316 7.30616 3.08741C7.48191 2.91166 7.7202 2.81279 7.96875 2.8125H22.0312C22.2798 2.81279 22.5181 2.91166 22.6938 3.08741C22.8696 3.26316 22.9685 3.50145 22.9688 3.75V12.1875Z" fill="#9C77CA"/>
<path d="M8.4375 16.4062H10.3125V22.0312H8.4375V16.4062Z" fill="#9C77CA"/>
<path d="M8.4375 6.09375H10.3125V9.84375H8.4375V6.09375Z" fill="#9C77CA"/>
<line x1="1" y1="37.5" x2="29" y2="37.5" stroke="#9C77CA" stroke-width="3"/>
</svg>
