<svg width="140" height="49" viewBox="0 0 140 49" fill="none" xmlns="http://www.w3.org/2000/svg">
<path d="M35.5191 9.25217C35.3618 9.31304 35.2045 9.40435 35.0786 9.52609C33.9775 10.5609 33.5056 12.0522 34.1034 13.4826C36.6831 19.9348 40.018 34.6348 49.7708 30.4348C55.4022 28 54.3011 21.213 54.3011 21.213C53.7034 18.2609 51.973 1.76522 46.8449 5.02174C44.0764 6.75652 46.027 11.2 46.7191 13.8478C47.1595 15.5522 48.1663 22.1565 44.1079 20.1174C42.0629 19.0826 38.9168 11.9609 38.9168 11.9609C38.6966 11.3217 38.5393 10.7435 38.0989 10.1957C37.5011 9.46522 36.4 8.88696 35.5191 9.25217Z" fill="white"/>
<path d="M79.2495 3.89565C79.2495 3.89565 80.9169 4.04782 81.8922 5.72174C83.7798 8.88695 85.8562 14.6696 86.9888 15.8565C88.1214 17.013 88.9394 18.2 89.254 15.187C89.5686 12.1739 89.663 2.46521 92.6203 1.36956C95.4832 0.517387 95.672 4.04782 95.7978 9.16087C95.8922 12.8435 95.7978 16.5565 95.7349 20.2696C95.672 23.4957 95.9551 26.813 95.2944 30.0391C95.0113 31.3783 94.2562 32.413 93.0922 32.687C90.6697 32.8087 88.5304 28.2739 88.5304 28.2739C88.5304 28.2739 85.4787 22.8565 84.1573 21.5478C82.836 20.2696 80.7281 17.713 81.5146 22.9478C81.9236 25.7174 82.5843 28.6391 82.0495 31.5304C81.609 33.9652 80.0045 37.1913 77.6135 36.3696C74.027 35.1522 75.0967 28.7 75.254 25.3217C75.4427 21.3348 75.5371 17.3478 75.8832 13.3609C76.0405 11.0783 76.3551 3.6826 79.2495 3.89565Z" fill="white"/>
<path d="M130.09 14.8522C130.813 13.1478 131.883 10.9261 133.834 10.2261C135.973 9.4652 138.616 11.0782 138.993 13.2087C139.434 15.7043 137.861 18.4435 136.917 20.6652C135.658 23.6174 134.306 26.5695 132.67 29.3695C131.6 31.2261 130.53 33.2956 128.768 34.6348C128.013 35.2435 126.881 35.8217 125.874 35.4869C124.584 35.0608 124.238 33.5087 124.553 32.3521C124.962 30.8608 125.528 29.3695 126 27.8478C127.07 24.4087 128.108 20.9391 129.177 17.5C129.366 16.7695 129.681 15.8261 130.09 14.8522Z" fill="white"/>
<path d="M123.966 45.3985C125.092 43.9677 125.02 42.0812 123.803 41.1849C122.587 40.2885 120.688 40.7217 119.561 42.1524C118.434 43.5831 118.507 45.4696 119.723 46.366C120.94 47.2624 122.839 46.8292 123.966 45.3985Z" fill="white"/>
<path d="M37.4382 27.4826C36.5888 26.813 31.3034 23.7391 25.7978 24.1652C23.8157 24.3174 22.4 23.2826 21.991 21.7304C21.4876 19.8739 22.5258 18.1391 22.5258 16.2826C22.5258 14.8522 22.2427 13.2391 21.3303 11.9913C20.009 10.1956 17.9011 8.61304 15.5416 7.7913C11.1056 6.33043 6.51237 8.33912 3.46068 11.0174C3.42922 11.0478 3.3663 11.1087 3.33484 11.1391C1.73034 12.6609 1.4472 14.7609 1.88765 16.7087C2.35956 18.7174 2.98877 20.7261 3.58652 22.7043C4.53034 25.8696 5.47416 29.0043 6.44944 32.1696C7.33034 35.0609 8.21124 37.9522 9.1236 40.8435C9.68989 42.7 9.94158 44.5565 11.5461 46.0478C13.0247 47.3869 15.1011 48.0869 17.3034 47.7217C22.1169 46.9304 34.7955 45.1348 39.2 39.6565C43.6045 34.1478 39.3573 29.0043 37.4382 27.4826ZM11.6719 18.9609C10.3191 18.9609 9.21798 17.9565 9.21798 16.7087C9.21798 15.4609 10.3191 14.4565 11.6719 14.4565C13.0247 14.4565 14.1258 15.4609 14.1258 16.7087C14.1258 17.9565 13.0247 18.9609 11.6719 18.9609ZM23.2809 37.5261C21.0787 37.5261 19.2854 35.8826 19.2854 33.8739C19.2854 31.8652 21.0787 30.2217 23.2809 30.2217C25.4832 30.2217 27.2764 31.8652 27.2764 33.8739C27.3079 35.913 25.5146 37.5261 23.2809 37.5261Z" fill="white"/>
<path d="M111.465 9.7391C109.294 8.64345 106.085 8.61301 103.726 9.25214C103.191 9.40432 102.688 9.61736 102.247 9.89128C98.5034 12.2348 98.2832 17.9565 98.1573 21.7913C98 26.9652 100.422 31.1652 104.135 34.7565C104.166 34.7869 111.622 41.9695 120.526 31.5913C129.492 21.213 115.303 11.6869 111.465 9.7391ZM107.092 28.7C105.016 28.7 103.348 27.0869 103.348 25.0782C103.348 23.0695 105.016 21.4565 107.092 21.4565C109.169 21.4565 110.836 23.0695 110.836 25.0782C110.836 27.0565 109.169 28.7 107.092 28.7Z" fill="white"/>
<path d="M71.7933 15.2174C70.1259 11.687 65.3124 8.61306 61.1911 9.92175C60.7191 10.0739 60.2787 10.287 59.8382 10.5305C56.409 12.6 56.1888 17.7131 57.1326 21.0913C58.5169 26.1435 64.9663 28.6696 68.4899 27.0565C72.0135 25.4739 75.0652 22.2174 71.7933 15.2174ZM63.7079 19.2957C62.5124 19.1131 61.6944 18.0478 61.8832 16.8913C62.072 15.7348 63.1731 14.9435 64.3686 15.1261C65.5641 15.3087 66.3821 16.3739 66.1933 17.5305C66.0045 18.687 64.9034 19.4478 63.7079 19.2957Z" fill="white"/>
</svg>
