<svg width="142" height="54" viewBox="0 0 142 54" fill="none" xmlns="http://www.w3.org/2000/svg">
<g clip-path="url(#clip0)">
<path d="M37.3188 13.3909C37.1612 13.4519 37.0036 13.5435 36.8775 13.6656C35.7743 14.7032 35.3015 16.1987 35.9004 17.6332C38.4851 24.1034 41.8263 38.8446 51.5978 34.6328C57.2401 32.1912 56.1368 25.3852 56.1368 25.3852C55.538 22.4248 53.8043 5.88295 48.6664 9.1486C45.8925 10.8882 47.8468 15.3442 48.5403 17.9994C48.9816 19.7085 49.9903 26.3314 45.924 24.2865C43.8752 23.2488 40.7231 16.1072 40.7231 16.1072C40.5024 15.4662 40.3448 14.8864 39.9035 14.337C39.3046 13.6045 38.2014 13.0246 37.3188 13.3909Z" fill="#332F11"/>
<path d="M81.1329 8.01932C81.1329 8.01932 82.8035 8.17192 83.7806 9.85052C85.6719 13.0246 87.7523 18.8234 88.887 20.0137C90.0218 21.1734 90.8413 22.3637 91.1566 19.3422C91.4718 16.3208 91.5663 6.58488 94.5293 5.48616C97.3977 4.6316 97.5868 8.17192 97.7129 13.2993C97.8075 16.9922 97.7129 20.7156 97.6499 24.4391C97.5868 27.6742 97.8705 31.0009 97.2086 34.236C96.9249 35.5789 96.1684 36.6166 95.0021 36.8913C92.575 37.0133 90.4316 32.4659 90.4316 32.4659C90.4316 32.4659 87.374 27.0333 86.0502 25.7209C84.7263 24.4391 82.6144 21.8754 83.4024 27.1249C83.8122 29.9022 84.4741 32.8321 83.9382 35.7315C83.4969 38.1731 81.8894 41.4082 79.4938 40.5842C75.9004 39.3634 76.9721 32.8931 77.1297 29.5054C77.3188 25.5073 77.4134 21.5092 77.7601 17.511C77.9177 15.222 78.2329 7.80568 81.1329 8.01932Z" fill="#332F11"/>
<path d="M132.071 19.0065C132.796 17.2974 133.867 15.0695 135.822 14.3675C137.965 13.6045 140.613 15.2221 140.991 17.3585C141.433 19.8611 139.856 22.6079 138.911 24.8359C137.65 27.7963 136.295 30.7567 134.656 33.5646C133.584 35.4263 132.512 37.5017 130.747 38.8445C129.99 39.4549 128.856 40.0348 127.847 39.6991C126.555 39.2718 126.208 37.7153 126.523 36.5555C126.933 35.0601 127.5 33.5646 127.973 32.0386C129.045 28.5898 130.085 25.1105 131.157 21.6618C131.346 20.9293 131.661 19.9832 132.071 19.0065Z" fill="#332F11"/>
<path d="M125.935 49.6383C127.064 48.2036 126.991 46.3118 125.772 45.413C124.554 44.5141 122.651 44.9485 121.522 46.3832C120.393 47.8179 120.466 49.7097 121.684 50.6086C122.903 51.5075 124.806 51.0731 125.935 49.6383Z" fill="#332F11"/>
<path d="M39.2415 31.6724C38.3905 31.0009 33.0949 27.9184 27.5788 28.3457C25.5929 28.4983 24.1745 27.4606 23.7647 25.9041C23.2604 24.0424 24.3006 22.3027 24.3006 20.441C24.3006 19.0066 24.0169 17.389 23.1028 16.1377C21.7789 14.337 19.667 12.75 17.3029 11.9259C12.8585 10.461 8.25641 12.4753 5.19887 15.161C5.16735 15.1916 5.10431 15.2526 5.07279 15.2831C3.46522 16.8091 3.18153 18.915 3.62282 20.8683C4.09564 22.8826 4.72606 24.8969 5.32495 26.8807C6.27058 30.0548 7.21621 33.1984 8.19336 36.3724C9.07595 39.2718 9.95854 42.1712 10.8726 45.0706C11.44 46.9324 11.6922 48.7941 13.2998 50.2896C14.7812 51.6325 16.8616 52.3344 19.0681 51.9682C23.8908 51.1747 36.5938 49.374 41.0067 43.8804C45.4196 38.3562 41.1643 33.1984 39.2415 31.6724ZM13.4258 23.1268C12.0704 23.1268 10.9672 22.1196 10.9672 20.8683C10.9672 19.617 12.0704 18.6098 13.4258 18.6098C14.7812 18.6098 15.8845 19.617 15.8845 20.8683C15.8845 22.1196 14.7812 23.1268 13.4258 23.1268ZM25.0571 41.744C22.8506 41.744 21.0539 40.0959 21.0539 38.0816C21.0539 36.0672 22.8506 34.4192 25.0571 34.4192C27.2636 34.4192 29.0603 36.0672 29.0603 38.0816C29.0918 40.1264 27.2951 41.744 25.0571 41.744Z" fill="#332F11"/>
<path d="M113.41 13.8791C111.235 12.7804 108.02 12.7499 105.656 13.3908C105.12 13.5434 104.616 13.757 104.175 14.0317C100.424 16.3817 100.203 22.1195 100.077 25.965C99.9195 31.1534 102.347 35.3652 106.066 38.9666C106.098 38.9971 113.568 46.1998 122.488 35.7925C131.472 25.3851 117.256 15.8324 113.41 13.8791ZM109.029 32.8931C106.949 32.8931 105.278 31.2755 105.278 29.2612C105.278 27.2469 106.949 25.6293 109.029 25.6293C111.109 25.6293 112.78 27.2469 112.78 29.2612C112.78 31.245 111.109 32.8931 109.029 32.8931Z" fill="#332F11"/>
<path d="M73.6625 19.3727C71.9919 15.8324 67.1692 12.7499 63.0399 14.0623C62.5671 14.2149 62.1258 14.4285 61.6845 14.6727C58.2488 16.748 58.0281 21.8754 58.9737 25.2631C60.3607 30.3294 66.8224 32.8626 70.3528 31.245C73.8831 29.658 76.9407 26.3924 73.6625 19.3727ZM65.5616 23.4624C64.3638 23.2793 63.5443 22.2111 63.7334 21.0514C63.9225 19.8916 65.0258 19.0981 66.2236 19.2812C67.4213 19.4643 68.2409 20.5325 68.0518 21.6923C67.8626 22.852 66.7594 23.615 65.5616 23.4624Z" fill="#332F11"/>
</g>
<path d="M35.5872 9.27809C35.4296 9.33913 35.272 9.43069 35.1459 9.55277C34.0427 10.5904 33.5699 12.0859 34.1688 13.5204C36.7535 19.9906 40.0947 34.7318 49.8662 30.52C55.5085 28.0784 54.4053 21.2725 54.4053 21.2725C53.8064 18.312 52.0727 1.77016 46.9348 5.0358C44.1609 6.77544 46.1152 11.2314 46.8087 13.8866C47.25 15.5957 48.2587 22.2186 44.1924 20.1737C42.1436 19.1361 38.9915 11.9944 38.9915 11.9944C38.7708 11.3534 38.6132 10.7736 38.1719 10.2242C37.573 9.49173 36.4698 8.91185 35.5872 9.27809Z" fill="white"/>
<path d="M79.4013 3.90653C79.4013 3.90653 81.0719 4.05913 82.049 5.73773C83.9403 8.91181 86.0207 14.7106 87.1554 15.9009C88.2902 17.0607 89.1097 18.2509 89.425 15.2295C89.7402 12.208 89.8347 2.47209 92.7977 1.37336C95.6661 0.518804 95.8552 4.05913 95.9813 9.18649C96.0759 12.8794 95.9813 16.6029 95.9183 20.3263C95.8552 23.5614 96.1389 26.8881 95.477 30.1232C95.1933 31.4661 94.4368 32.5038 93.2705 32.7785C90.8434 32.9005 88.7 28.3531 88.7 28.3531C88.7 28.3531 85.6424 22.9205 84.3186 21.6081C82.9947 20.3263 80.8828 17.7626 81.6708 23.0121C82.0806 25.7894 82.7425 28.7193 82.2066 31.6187C81.7653 34.0603 80.1578 37.2954 77.7622 36.4714C74.1688 35.2506 75.2405 28.7803 75.3981 25.3926C75.5872 21.3945 75.6818 17.3964 76.0285 13.3983C76.1861 11.1093 76.5013 3.69289 79.4013 3.90653Z" fill="white"/>
<path d="M130.339 14.8937C131.064 13.1846 132.136 10.9567 134.09 10.2547C136.234 9.49171 138.881 11.1093 139.26 13.2457C139.701 15.7483 138.125 18.4951 137.179 20.7231C135.918 23.6835 134.563 26.6439 132.924 29.4518C131.852 31.3135 130.78 33.3889 129.015 34.7318C128.259 35.3422 127.124 35.922 126.115 35.5863C124.823 35.159 124.476 33.6025 124.792 32.4427C125.201 30.9473 125.769 29.4518 126.241 27.9258C127.313 24.477 128.353 20.9977 129.425 17.549C129.614 16.8165 129.929 15.8704 130.339 14.8937Z" fill="white"/>
<path d="M124.203 45.5255C125.332 44.0908 125.259 42.199 124.041 41.3002C122.822 40.4013 120.919 40.8357 119.79 42.2704C118.661 43.7051 118.734 45.5969 119.953 46.4958C121.172 47.3947 123.075 46.9603 124.203 45.5255Z" fill="white"/>
<path d="M37.5099 27.5596C36.6589 26.8881 31.3633 23.8056 25.8472 24.2329C23.8613 24.3855 22.4429 23.3478 22.0331 21.7913C21.5288 19.9296 22.569 18.1899 22.569 16.3282C22.569 14.8938 22.2853 13.2762 21.3712 12.0249C20.0473 10.2242 17.9354 8.63716 15.5713 7.81312C11.1269 6.34816 6.52481 8.36248 3.46727 11.0482C3.43575 11.0788 3.37271 11.1398 3.34119 11.1703C1.73362 12.6963 1.44993 14.8022 1.89122 16.7555C2.36404 18.7698 2.99446 20.7841 3.59336 22.7679C4.53899 25.942 5.48462 29.0856 6.46177 32.2596C7.34435 35.159 8.22694 38.0585 9.14105 40.9579C9.70843 42.8196 9.9606 44.6813 11.5682 46.1768C13.0497 47.5197 15.13 48.2216 17.3365 47.8554C22.1592 47.0619 34.8622 45.2612 39.2751 39.7676C43.688 34.2435 39.4327 29.0856 37.5099 27.5596ZM11.6942 19.014C10.3388 19.014 9.23561 18.0068 9.23561 16.7555C9.23561 15.5042 10.3388 14.497 11.6942 14.497C13.0497 14.497 14.1529 15.5042 14.1529 16.7555C14.1529 18.0068 13.0497 19.014 11.6942 19.014ZM23.3255 37.6312C21.119 37.6312 19.3223 35.9831 19.3223 33.9688C19.3223 31.9545 21.119 30.3064 23.3255 30.3064C25.532 30.3064 27.3287 31.9545 27.3287 33.9688C27.3602 36.0136 25.5635 37.6312 23.3255 37.6312Z" fill="white"/>
<path d="M111.679 9.76637C109.504 8.66764 106.289 8.63712 103.925 9.27804C103.389 9.43064 102.884 9.64428 102.443 9.91897C98.6922 12.269 98.4716 18.0068 98.3455 21.8523C98.1879 27.0407 100.615 31.2525 104.334 34.8538C104.366 34.8843 111.836 42.0871 120.757 31.6797C129.74 21.2724 115.524 11.7196 111.679 9.76637ZM107.297 28.7803C105.217 28.7803 103.546 27.1628 103.546 25.1485C103.546 23.1341 105.217 21.5166 107.297 21.5166C109.378 21.5166 111.048 23.1341 111.048 25.1485C111.048 27.1323 109.378 28.7803 107.297 28.7803Z" fill="white"/>
<path d="M71.9309 15.26C70.2603 11.7196 65.4376 8.63711 61.3083 9.94947C60.8355 10.1021 60.3942 10.3157 59.9529 10.5599C56.5172 12.6352 56.2965 17.7626 57.2421 21.1503C58.6291 26.2166 65.0909 28.7498 68.6212 27.1322C72.1515 25.5452 75.2091 22.2796 71.9309 15.26ZM63.83 19.3496C62.6322 19.1665 61.8127 18.0983 62.0018 16.9386C62.1909 15.7788 63.2942 14.9853 64.492 15.1684C65.6898 15.3515 66.5093 16.4197 66.3202 17.5795C66.131 18.7392 65.0278 19.5022 63.83 19.3496Z" fill="white"/>
<defs>
<clipPath id="clip0">
<rect width="140.268" height="49.1372" fill="white" transform="translate(1.7316 4.11279)"/>
</clipPath>
</defs>
</svg>
