<svg width="139" height="47" viewBox="0 0 139 47" fill="none" xmlns="http://www.w3.org/2000/svg">
<path d="M34.5191 8.25217C34.3618 8.31304 34.2045 8.40435 34.0787 8.52609C32.9775 9.56087 32.5056 11.0522 33.1034 12.4826C35.6832 18.9348 39.018 33.6348 48.7708 29.4348C54.4023 27 53.3012 20.213 53.3012 20.213C52.7034 17.2609 50.9731 0.765217 45.845 4.02174C43.0764 5.75652 45.027 10.2 45.7191 12.8478C46.1596 14.5522 47.1663 21.1565 43.1079 19.1174C41.0629 18.0826 37.9169 10.9609 37.9169 10.9609C37.6966 10.3217 37.5393 9.74348 37.0989 9.19565C36.5011 8.46522 35.4 7.88696 34.5191 8.25217Z" fill="#9C77CA"/>
<path d="M78.2494 2.89562C78.2494 2.89562 79.9169 3.04779 80.8921 4.7217C82.7798 7.88692 84.8562 13.6695 85.9888 14.8565C87.1214 16.013 87.9393 17.2 88.254 14.1869C88.5686 11.1739 88.6629 1.46518 91.6202 0.36953C94.4832 -0.482644 94.6719 3.04779 94.7978 8.16084C94.8922 11.8434 94.7978 15.5565 94.7348 19.2695C94.6719 22.4956 94.9551 25.813 94.2944 29.0391C94.0113 30.3782 93.2562 31.413 92.0922 31.6869C89.6697 31.8087 87.5304 27.2739 87.5304 27.2739C87.5304 27.2739 84.4787 21.8565 83.1573 20.5478C81.836 19.2695 79.7281 16.713 80.5146 21.9478C80.9236 24.7174 81.5843 27.6391 81.0494 30.5304C80.609 32.9652 79.0045 36.1913 76.6135 35.3695C73.027 34.1521 74.0966 27.7 74.2539 24.3217C74.4427 20.3347 74.5371 16.3478 74.8831 12.3608C75.0405 10.0782 75.3551 2.68257 78.2494 2.89562Z" fill="#9C77CA"/>
<path d="M129.09 13.8521C129.813 12.1478 130.883 9.92603 132.834 9.22603C134.973 8.46516 137.616 10.0782 137.993 12.2086C138.434 14.7043 136.861 17.4434 135.917 19.6652C134.658 22.6173 133.306 25.5695 131.67 28.3695C130.6 30.226 129.53 32.2956 127.769 33.6347C127.013 34.2434 125.881 34.8217 124.874 34.4869C123.584 34.0608 123.238 32.5086 123.553 31.3521C123.962 29.8608 124.528 28.3695 125 26.8478C126.07 23.4086 127.108 19.9391 128.178 16.4999C128.366 15.7695 128.681 14.826 129.09 13.8521Z" fill="#9C77CA"/>
<path d="M122.966 44.3984C124.092 42.9677 124.02 41.0812 122.803 40.1848C121.587 39.2884 119.688 39.7216 118.561 41.1524C117.434 42.5831 117.507 44.4696 118.723 45.3659C119.94 46.2623 121.839 45.8291 122.966 44.3984Z" fill="#9C77CA"/>
<path d="M36.4382 26.4826C35.5888 25.813 30.3034 22.7391 24.7978 23.1652C22.8157 23.3174 21.4 22.2826 20.991 20.7304C20.4876 18.8739 21.5258 17.1391 21.5258 15.2826C21.5258 13.8522 21.2427 12.2391 20.3303 10.9913C19.009 9.19565 16.9011 7.61304 14.5416 6.7913C10.1056 5.33043 5.51236 7.33912 2.46068 10.0174C2.42922 10.0478 2.36629 10.1087 2.33483 10.1391C0.73034 11.6609 0.447193 13.7609 0.887643 15.7087C1.35955 17.7174 1.98877 19.7261 2.58652 21.7043C3.53034 24.8696 4.47416 28.0043 5.44944 31.1696C6.33034 34.0609 7.21124 36.9522 8.1236 39.8435C8.68989 41.7 8.94158 43.5565 10.5461 45.0478C12.0247 46.3869 14.1011 47.0869 16.3034 46.7217C21.1169 45.9304 33.7955 44.1348 38.2 38.6565C42.6045 33.1478 38.3573 28.0043 36.4382 26.4826ZM10.6719 17.9609C9.3191 17.9609 8.21798 16.9565 8.21798 15.7087C8.21798 14.4609 9.3191 13.4565 10.6719 13.4565C12.0247 13.4565 13.1258 14.4609 13.1258 15.7087C13.1258 16.9565 12.0247 17.9609 10.6719 17.9609ZM22.2809 36.5261C20.0787 36.5261 18.2854 34.8826 18.2854 32.8739C18.2854 30.8652 20.0787 29.2217 22.2809 29.2217C24.4831 29.2217 26.2764 30.8652 26.2764 32.8739C26.3079 34.913 24.5146 36.5261 22.2809 36.5261Z" fill="#9C77CA"/>
<path d="M110.465 8.7391C108.294 7.64345 105.085 7.61301 102.726 8.25214C102.191 8.40432 101.688 8.61736 101.247 8.89128C97.5034 11.2348 97.2831 16.9565 97.1573 20.7913C97 25.9652 99.4225 30.1652 103.135 33.7565C103.166 33.7869 110.622 40.9695 119.526 30.5913C128.492 20.213 114.303 10.6869 110.465 8.7391ZM106.092 27.7C104.016 27.7 102.348 26.0869 102.348 24.0782C102.348 22.0695 104.016 20.4565 106.092 20.4565C108.169 20.4565 109.836 22.0695 109.836 24.0782C109.836 26.0565 108.169 27.7 106.092 27.7Z" fill="#9C77CA"/>
<path d="M70.7933 14.2173C69.1258 10.6869 64.3124 7.613 60.191 8.92169C59.7191 9.07387 59.2787 9.28691 58.8382 9.53039C55.409 11.6 55.1888 16.713 56.1326 20.0913C57.5169 25.1434 63.9663 27.6695 67.4899 26.0565C71.0135 24.4739 74.0652 21.2173 70.7933 14.2173ZM62.7079 18.2956C61.5124 18.113 60.6944 17.0478 60.8832 15.8913C61.0719 14.7347 62.173 13.9434 63.3685 14.126C64.5641 14.3087 65.382 15.3739 65.1933 16.5304C65.0045 17.6869 63.9034 18.4478 62.7079 18.2956Z" fill="#9C77CA"/>
</svg>
