<svg width="212" height="80" viewBox="0 0 212 80" fill="none" xmlns="http://www.w3.org/2000/svg">
<path d="M55.7155 19.992C55.4802 20.0831 55.2449 20.2198 55.0566 20.4021C53.4096 21.9513 52.7037 24.184 53.5978 26.3256C57.4567 35.9854 62.445 57.9933 77.0334 51.7053C85.4571 48.0601 83.81 37.8991 83.81 37.8991C82.9159 33.4793 80.3276 8.78301 72.6569 13.6585C68.5156 16.2557 71.4333 22.9082 72.4686 26.8723C73.1275 29.424 74.6334 39.3116 68.5627 36.2587C65.5038 34.7095 60.7979 24.0473 60.7979 24.0473C60.4685 23.0904 60.2332 22.2247 59.5744 21.4045C58.6802 20.311 57.0331 19.4452 55.7155 19.992Z" fill="#332F11"/>
<path d="M121.128 11.9725C121.128 11.9725 123.622 12.2003 125.081 14.7064C127.905 19.4452 131.01 28.1026 132.705 29.8796C134.399 31.6111 135.622 33.3881 136.093 28.8772C136.563 24.3662 136.705 9.83096 141.128 8.19062C145.411 6.9148 145.693 12.2003 145.881 19.8553C146.022 25.3687 145.881 30.9276 145.787 36.4865C145.693 41.3164 146.117 46.283 145.128 51.1129C144.705 53.1178 143.575 54.667 141.834 55.0771C138.211 55.2593 135.011 48.4701 135.011 48.4701C135.011 48.4701 130.446 40.3596 128.469 38.4003C126.493 36.4865 123.34 32.6591 124.516 40.4963C125.128 44.6427 126.116 49.0169 125.316 53.3456C124.657 56.9908 122.257 61.8207 118.681 60.5905C113.316 58.7679 114.916 49.1081 115.151 44.0503C115.434 38.0813 115.575 32.1123 116.093 26.1433C116.328 22.7259 116.798 11.6536 121.128 11.9725Z" fill="#332F11"/>
<path d="M197.176 28.3759C198.259 25.8243 199.859 22.498 202.776 21.45C205.976 20.3109 209.929 22.7259 210.494 25.9154C211.153 29.6518 208.8 33.7526 207.388 37.0789C205.506 41.4987 203.482 45.9185 201.035 50.1105C199.435 52.8899 197.835 55.9884 195.2 57.9932C194.07 58.9045 192.376 59.7702 190.87 59.269C188.941 58.6311 188.423 56.3073 188.894 54.5758C189.505 52.3431 190.353 50.1105 191.058 47.8322C192.658 42.6834 194.211 37.4889 195.811 32.3401C196.094 31.2465 196.564 29.834 197.176 28.3759Z" fill="#332F11"/>
<path d="M188.016 74.1079C189.701 71.9659 189.592 69.1416 187.773 67.7996C185.953 66.4576 183.112 67.1062 181.427 69.2482C179.742 71.3902 179.85 74.2145 181.67 75.5565C183.489 76.8985 186.33 76.2499 188.016 74.1079Z" fill="#332F11"/>
<path d="M58.586 47.2855C57.3154 46.2831 49.4094 41.681 41.174 42.3189C38.2092 42.5467 36.0916 40.9975 35.4798 38.6737C34.7268 35.8942 36.2798 33.297 36.2798 30.5175C36.2798 28.376 35.8563 25.961 34.4915 24.0929C32.515 21.4045 29.3621 19.0351 25.8326 17.8049C19.1972 15.6178 12.3265 18.6251 7.76176 22.6348C7.7147 22.6804 7.62058 22.7715 7.57352 22.817C5.17349 25.0953 4.74995 28.2393 5.40878 31.1555C6.11468 34.1627 7.05586 37.17 7.94999 40.1318C9.36178 44.8705 10.7736 49.5637 12.2324 54.3025C13.5501 58.6312 14.8677 62.9599 16.2325 67.2885C17.0795 70.068 17.456 72.8475 19.856 75.0802C22.0678 77.085 25.1738 78.133 28.4679 77.5863C35.668 76.4016 54.633 73.7132 61.2213 65.5115C67.8096 57.2642 61.4566 49.5637 58.586 47.2855ZM20.0443 34.5273C18.0207 34.5273 16.3736 33.0236 16.3736 31.1555C16.3736 29.2873 18.0207 27.7836 20.0443 27.7836C22.0678 27.7836 23.7149 29.2873 23.7149 31.1555C23.7149 33.0236 22.0678 34.5273 20.0443 34.5273ZM37.4092 62.322C34.1151 62.322 31.4327 59.8614 31.4327 56.8541C31.4327 53.8469 34.1151 51.3863 37.4092 51.3863C40.7034 51.3863 43.3858 53.8469 43.3858 56.8541C43.4328 59.907 40.7504 62.322 37.4092 62.322Z" fill="#332F11"/>
<path d="M169.317 20.7209C166.07 19.0806 161.27 19.035 157.74 19.9919C156.94 20.2197 156.187 20.5387 155.528 20.9488C149.928 24.4573 149.599 33.0235 149.411 38.7647C149.175 46.5108 152.799 52.7988 158.352 58.1754C158.399 58.221 169.552 68.9744 182.87 53.4367C196.282 37.899 175.058 23.6371 169.317 20.7209ZM162.776 49.108C159.67 49.108 157.176 46.693 157.176 43.6857C157.176 40.6784 159.67 38.2635 162.776 38.2635C165.882 38.2635 168.376 40.6784 168.376 43.6857C168.376 46.6475 165.882 49.108 162.776 49.108Z" fill="#332F11"/>
<path d="M109.975 28.9227C107.481 23.6372 100.281 19.0351 94.1159 20.9944C93.41 21.2222 92.7511 21.5412 92.0923 21.9057C86.9628 25.0041 86.6334 32.659 88.0452 37.7168C90.1158 45.2806 99.763 49.0625 105.034 46.6475C110.304 44.2781 114.869 39.4027 109.975 28.9227ZM97.8806 35.0284C96.0924 34.755 94.8688 33.1603 95.1512 31.4288C95.4335 29.6973 97.0806 28.5126 98.8689 28.786C100.657 29.0594 101.881 30.6542 101.598 32.3857C101.316 34.1171 99.6689 35.2563 97.8806 35.0284Z" fill="#332F11"/>
<path d="M53.1303 13.8518C52.895 13.9429 52.6597 14.0796 52.4714 14.2619C50.8244 15.8111 50.1185 18.0438 51.0126 20.1853C54.8715 29.8451 59.8598 51.8531 74.4482 45.5651C82.8719 41.9199 81.2248 31.7589 81.2248 31.7589C80.3307 27.339 77.7424 2.64278 70.0717 7.51824C65.9304 10.1155 68.8481 16.768 69.8834 20.7321C70.5423 23.2838 72.0482 33.1714 65.9775 30.1185C62.9186 28.5693 58.2127 17.9071 58.2127 17.9071C57.8833 16.9502 57.648 16.0845 56.9891 15.2643C56.095 14.1707 54.4479 13.305 53.1303 13.8518Z" fill="white"/>
<path d="M118.543 5.83229C118.543 5.83229 121.037 6.06012 122.496 8.5662C125.319 13.305 128.425 21.9623 130.119 23.7394C131.814 25.4708 133.037 27.2479 133.508 22.7369C133.978 18.226 134.119 3.69073 138.543 2.05039C142.825 0.77457 143.108 6.06012 143.296 13.7151C143.437 19.2284 143.296 24.7874 143.202 30.3463C143.108 35.1762 143.531 40.1428 142.543 44.9727C142.12 46.9776 140.99 48.5268 139.249 48.9369C135.625 49.1191 132.425 42.3299 132.425 42.3299C132.425 42.3299 127.861 34.2193 125.884 32.26C123.908 30.3463 120.755 26.5188 121.931 34.356C122.543 38.5025 123.531 42.8767 122.731 47.2054C122.072 50.8506 119.672 55.6805 116.096 54.4502C110.731 52.6276 112.331 42.9678 112.566 37.9101C112.849 31.9411 112.99 25.9721 113.507 20.003C113.743 16.5857 114.213 5.51334 118.543 5.83229Z" fill="white"/>
<path d="M194.591 22.2357C195.673 19.6841 197.273 16.3578 200.191 15.3098C203.391 14.1707 207.344 16.5856 207.909 19.7752C208.568 23.5115 206.215 27.6124 204.803 30.9386C202.92 35.3584 200.897 39.7782 198.45 43.9702C196.85 46.7497 195.25 49.8481 192.614 51.853C191.485 52.7643 189.791 53.63 188.285 53.1288C186.356 52.4909 185.838 50.1671 186.309 48.4356C186.92 46.2029 187.767 43.9702 188.473 41.692C190.073 36.5431 191.626 31.3487 193.226 26.1999C193.509 25.1063 193.979 23.6938 194.591 22.2357Z" fill="white"/>
<path d="M185.43 67.9677C187.116 65.8257 187.007 63.0014 185.187 61.6594C183.368 60.3174 180.527 60.9659 178.842 63.1079C177.156 65.2499 177.265 68.0743 179.085 69.4163C180.904 70.7582 183.745 70.1097 185.43 67.9677Z" fill="white"/>
<path d="M56.0008 41.1453C54.7302 40.1428 46.8242 35.5408 38.5888 36.1787C35.624 36.4065 33.5064 34.8573 32.8946 32.5335C32.1416 29.754 33.6946 27.1568 33.6946 24.3773C33.6946 22.2358 33.2711 19.8208 31.9063 17.9526C29.9298 15.2643 26.7768 12.8949 23.2474 11.6647C16.612 9.47754 9.74132 12.4848 5.17655 16.4946C5.12949 16.5401 5.03537 16.6313 4.98831 16.6768C2.58828 18.9551 2.16475 22.0991 2.82358 25.0152C3.52947 28.0225 4.47066 31.0298 5.36479 33.9915C6.77657 38.7303 8.18836 43.4235 9.6472 48.1623C10.9649 52.491 12.2825 56.8196 13.6473 61.1483C14.4943 63.9278 14.8708 66.7073 17.2708 68.9399C19.4826 70.9448 22.5886 71.9928 25.8827 71.446C33.0828 70.2613 52.0478 67.573 58.6361 59.3713C65.2244 51.124 58.8714 43.4235 56.0008 41.1453ZM17.4591 28.387C15.4355 28.387 13.7884 26.8834 13.7884 25.0152C13.7884 23.1471 15.4355 21.6434 17.4591 21.6434C19.4826 21.6434 21.1297 23.1471 21.1297 25.0152C21.1297 26.8834 19.4826 28.387 17.4591 28.387ZM34.824 56.1817C31.5299 56.1817 28.8475 53.7212 28.8475 50.7139C28.8475 47.7066 31.5299 45.2461 34.824 45.2461C38.1182 45.2461 40.8006 47.7066 40.8006 50.7139C40.8476 53.7668 38.1652 56.1817 34.824 56.1817Z" fill="white"/>
<path d="M166.732 14.5807C163.485 12.9404 158.685 12.8948 155.155 13.8517C154.355 14.0795 153.602 14.3985 152.943 14.8085C147.343 18.3171 147.014 26.8833 146.826 32.6245C146.59 40.3705 150.214 46.6585 155.767 52.0352C155.814 52.0808 166.967 62.8341 180.285 47.2964C193.697 31.7588 172.473 17.4969 166.732 14.5807ZM160.19 42.9678C157.084 42.9678 154.59 40.5528 154.59 37.5455C154.59 34.5382 157.084 32.1233 160.19 32.1233C163.296 32.1233 165.79 34.5382 165.79 37.5455C165.79 40.5072 163.296 42.9678 160.19 42.9678Z" fill="white"/>
<path d="M107.39 22.7825C104.896 17.4969 97.6954 12.8949 91.5307 14.8542C90.8248 15.082 90.1659 15.4009 89.5071 15.7655C84.3776 18.8639 84.0482 26.5188 85.46 31.5765C87.5306 39.1403 97.1778 42.9222 102.448 40.5073C107.719 38.1379 112.284 33.2625 107.39 22.7825ZM95.2954 28.8882C93.5072 28.6148 92.2836 27.02 92.566 25.2886C92.8483 23.5571 94.4954 22.3724 96.2837 22.6458C98.0719 22.9192 99.2955 24.514 99.0131 26.2454C98.7307 27.9769 97.0837 29.116 95.2954 28.8882Z" fill="white"/>
</svg>
